<mxfile host="app.diagrams.net" agent="Mozilla/5.0 (Windows NT 10.0; Win64; x64) AppleWebKit/537.36 (KHTML, like Gecko) Chrome/129.0.0.0 Safari/537.36" version="24.7.17">
  <diagram name="Página-1" id="bx0lxy9evC_cpunOs-Vn">
    <mxGraphModel dx="3910" dy="2319" grid="1" gridSize="10" guides="1" tooltips="1" connect="1" arrows="1" fold="1" page="1" pageScale="1" pageWidth="827" pageHeight="1169" math="0" shadow="0">
      <root>
        <mxCell id="0" />
        <mxCell id="1" parent="0" />
        <mxCell id="TBS7EAhIqmJLn43qsNpC-21" style="edgeStyle=orthogonalEdgeStyle;rounded=0;orthogonalLoop=1;jettySize=auto;html=1;exitX=0.5;exitY=1;exitDx=0;exitDy=0;entryX=0;entryY=0.75;entryDx=0;entryDy=0;" edge="1" parent="1" source="TBS7EAhIqmJLn43qsNpC-1" target="TBS7EAhIqmJLn43qsNpC-3">
          <mxGeometry relative="1" as="geometry">
            <mxPoint x="410.3684210526317" y="120" as="targetPoint" />
            <Array as="points">
              <mxPoint x="410" y="120" />
            </Array>
          </mxGeometry>
        </mxCell>
        <mxCell id="TBS7EAhIqmJLn43qsNpC-1" value="&lt;font size=&quot;3&quot;&gt;¿TIENES DINERO?&lt;/font&gt;" style="rounded=1;whiteSpace=wrap;html=1;" vertex="1" parent="1">
          <mxGeometry x="350" y="10" width="120" height="50" as="geometry" />
        </mxCell>
        <mxCell id="TBS7EAhIqmJLn43qsNpC-2" value="NO" style="rounded=1;whiteSpace=wrap;html=1;" vertex="1" parent="1">
          <mxGeometry x="250" y="90" width="60" height="40" as="geometry" />
        </mxCell>
        <mxCell id="TBS7EAhIqmJLn43qsNpC-3" value="SI" style="rounded=1;whiteSpace=wrap;html=1;" vertex="1" parent="1">
          <mxGeometry x="470" y="90" width="60" height="40" as="geometry" />
        </mxCell>
        <mxCell id="TBS7EAhIqmJLn43qsNpC-4" value="COMPRALO" style="rounded=1;whiteSpace=wrap;html=1;" vertex="1" parent="1">
          <mxGeometry x="727" y="85" width="100" height="50" as="geometry" />
        </mxCell>
        <mxCell id="TBS7EAhIqmJLn43qsNpC-5" value="¿TIENES TRABAJO?" style="rounded=1;whiteSpace=wrap;html=1;" vertex="1" parent="1">
          <mxGeometry x="180" y="170" width="100" height="40" as="geometry" />
        </mxCell>
        <mxCell id="TBS7EAhIqmJLn43qsNpC-6" value="NO" style="rounded=1;whiteSpace=wrap;html=1;" vertex="1" parent="1">
          <mxGeometry x="130" y="240" width="60" height="40" as="geometry" />
        </mxCell>
        <mxCell id="TBS7EAhIqmJLn43qsNpC-7" value="SI" style="rounded=1;whiteSpace=wrap;html=1;" vertex="1" parent="1">
          <mxGeometry x="260" y="240" width="60" height="40" as="geometry" />
        </mxCell>
        <mxCell id="TBS7EAhIqmJLn43qsNpC-8" value="¿PAGAN BIEN?" style="rounded=1;whiteSpace=wrap;html=1;" vertex="1" parent="1">
          <mxGeometry x="500" y="210" width="90" height="60" as="geometry" />
        </mxCell>
        <mxCell id="TBS7EAhIqmJLn43qsNpC-9" value="SACA UN CREDITO" style="rounded=1;whiteSpace=wrap;html=1;" vertex="1" parent="1">
          <mxGeometry x="670" y="230" width="120" height="60" as="geometry" />
        </mxCell>
        <mxCell id="TBS7EAhIqmJLn43qsNpC-10" value="SI" style="rounded=1;whiteSpace=wrap;html=1;" vertex="1" parent="1">
          <mxGeometry x="580" y="310" width="60" height="40" as="geometry" />
        </mxCell>
        <mxCell id="TBS7EAhIqmJLn43qsNpC-11" value="NO" style="rounded=1;whiteSpace=wrap;html=1;" vertex="1" parent="1">
          <mxGeometry x="470" y="310" width="60" height="40" as="geometry" />
        </mxCell>
        <mxCell id="TBS7EAhIqmJLn43qsNpC-12" value="¿TIENES PROPIEDADES?" style="rounded=1;whiteSpace=wrap;html=1;" vertex="1" parent="1">
          <mxGeometry x="160" y="320" width="120" height="60" as="geometry" />
        </mxCell>
        <mxCell id="TBS7EAhIqmJLn43qsNpC-13" value="NO" style="rounded=1;whiteSpace=wrap;html=1;" vertex="1" parent="1">
          <mxGeometry x="100" y="400" width="60" height="40" as="geometry" />
        </mxCell>
        <mxCell id="TBS7EAhIqmJLn43qsNpC-14" value="SI" style="rounded=1;whiteSpace=wrap;html=1;" vertex="1" parent="1">
          <mxGeometry x="325" y="400" width="60" height="40" as="geometry" />
        </mxCell>
        <mxCell id="TBS7EAhIqmJLn43qsNpC-15" value="VENDELAS" style="rounded=1;whiteSpace=wrap;html=1;" vertex="1" parent="1">
          <mxGeometry x="520" y="390" width="120" height="60" as="geometry" />
        </mxCell>
        <mxCell id="TBS7EAhIqmJLn43qsNpC-16" value="¿TIENES RIÑON?" style="rounded=1;whiteSpace=wrap;html=1;" vertex="1" parent="1">
          <mxGeometry x="-50" y="420" width="100" height="50" as="geometry" />
        </mxCell>
        <mxCell id="TBS7EAhIqmJLn43qsNpC-17" value="SI" style="rounded=1;whiteSpace=wrap;html=1;" vertex="1" parent="1">
          <mxGeometry x="80" y="490" width="60" height="40" as="geometry" />
        </mxCell>
        <mxCell id="TBS7EAhIqmJLn43qsNpC-18" value="NO" style="rounded=1;whiteSpace=wrap;html=1;" vertex="1" parent="1">
          <mxGeometry x="-110" y="510" width="60" height="40" as="geometry" />
        </mxCell>
        <mxCell id="TBS7EAhIqmJLn43qsNpC-19" value="MENTIROSO" style="rounded=1;whiteSpace=wrap;html=1;" vertex="1" parent="1">
          <mxGeometry x="-220" y="570" width="90" height="50" as="geometry" />
        </mxCell>
        <mxCell id="TBS7EAhIqmJLn43qsNpC-26" value="¿PUEDES VENDERLO?" style="rounded=1;whiteSpace=wrap;html=1;" vertex="1" parent="1">
          <mxGeometry x="220" y="500" width="120" height="60" as="geometry" />
        </mxCell>
        <mxCell id="TBS7EAhIqmJLn43qsNpC-27" value="SI" style="rounded=1;whiteSpace=wrap;html=1;" vertex="1" parent="1">
          <mxGeometry x="350" y="585" width="60" height="35" as="geometry" />
        </mxCell>
        <mxCell id="TBS7EAhIqmJLn43qsNpC-28" value="NO" style="rounded=1;whiteSpace=wrap;html=1;" vertex="1" parent="1">
          <mxGeometry x="192.5" y="590" width="55" height="30" as="geometry" />
        </mxCell>
        <mxCell id="TBS7EAhIqmJLn43qsNpC-29" style="edgeStyle=orthogonalEdgeStyle;rounded=0;orthogonalLoop=1;jettySize=auto;html=1;exitX=0;exitY=1;exitDx=0;exitDy=0;entryX=0;entryY=0.75;entryDx=0;entryDy=0;" edge="1" parent="1" source="TBS7EAhIqmJLn43qsNpC-27" target="TBS7EAhIqmJLn43qsNpC-27">
          <mxGeometry relative="1" as="geometry" />
        </mxCell>
        <mxCell id="TBS7EAhIqmJLn43qsNpC-30" value="AHORRA" style="rounded=1;whiteSpace=wrap;html=1;" vertex="1" parent="1">
          <mxGeometry x="270" y="665" width="70" height="50" as="geometry" />
        </mxCell>
        <mxCell id="TBS7EAhIqmJLn43qsNpC-31" value="INVIERTE" style="rounded=1;whiteSpace=wrap;html=1;" vertex="1" parent="1">
          <mxGeometry x="60" y="660" width="120" height="60" as="geometry" />
        </mxCell>
        <mxCell id="TBS7EAhIqmJLn43qsNpC-33" value="¿DIO RESULTADO?" style="rounded=1;whiteSpace=wrap;html=1;" vertex="1" parent="1">
          <mxGeometry x="50" y="760" width="120" height="60" as="geometry" />
        </mxCell>
        <mxCell id="TBS7EAhIqmJLn43qsNpC-34" value="SI" style="rounded=1;whiteSpace=wrap;html=1;" vertex="1" parent="1">
          <mxGeometry x="180" y="850" width="70" height="40" as="geometry" />
        </mxCell>
        <mxCell id="TBS7EAhIqmJLn43qsNpC-35" value="NO" style="rounded=1;whiteSpace=wrap;html=1;" vertex="1" parent="1">
          <mxGeometry x="-35" y="850" width="70" height="40" as="geometry" />
        </mxCell>
        <mxCell id="TBS7EAhIqmJLn43qsNpC-36" value="CAMBIA DE PAIS" style="rounded=1;whiteSpace=wrap;html=1;" vertex="1" parent="1">
          <mxGeometry x="-20" y="930" width="120" height="60" as="geometry" />
        </mxCell>
        <mxCell id="TBS7EAhIqmJLn43qsNpC-37" value="VENDE TU RIÑON" style="rounded=1;whiteSpace=wrap;html=1;" vertex="1" parent="1">
          <mxGeometry x="205" y="930" width="120" height="60" as="geometry" />
        </mxCell>
        <mxCell id="TBS7EAhIqmJLn43qsNpC-40" value="" style="endArrow=classic;html=1;rounded=0;entryX=1;entryY=0.75;entryDx=0;entryDy=0;" edge="1" parent="1" target="TBS7EAhIqmJLn43qsNpC-2">
          <mxGeometry width="50" height="50" relative="1" as="geometry">
            <mxPoint x="410" y="120" as="sourcePoint" />
            <mxPoint x="470" y="240" as="targetPoint" />
          </mxGeometry>
        </mxCell>
        <mxCell id="TBS7EAhIqmJLn43qsNpC-41" value="" style="endArrow=classic;html=1;rounded=0;exitX=0.5;exitY=1;exitDx=0;exitDy=0;entryX=1;entryY=0.5;entryDx=0;entryDy=0;" edge="1" parent="1" source="TBS7EAhIqmJLn43qsNpC-12" target="TBS7EAhIqmJLn43qsNpC-13">
          <mxGeometry width="50" height="50" relative="1" as="geometry">
            <mxPoint x="420" y="290" as="sourcePoint" />
            <mxPoint x="220" y="430" as="targetPoint" />
            <Array as="points">
              <mxPoint x="220" y="420" />
            </Array>
          </mxGeometry>
        </mxCell>
        <mxCell id="TBS7EAhIqmJLn43qsNpC-42" value="" style="endArrow=classic;html=1;rounded=0;exitX=0.25;exitY=1;exitDx=0;exitDy=0;entryX=0;entryY=0;entryDx=0;entryDy=0;" edge="1" parent="1" source="TBS7EAhIqmJLn43qsNpC-6" target="TBS7EAhIqmJLn43qsNpC-12">
          <mxGeometry width="50" height="50" relative="1" as="geometry">
            <mxPoint x="420" y="290" as="sourcePoint" />
            <mxPoint x="470" y="240" as="targetPoint" />
          </mxGeometry>
        </mxCell>
        <mxCell id="TBS7EAhIqmJLn43qsNpC-43" value="" style="endArrow=classic;html=1;rounded=0;exitX=0.75;exitY=0;exitDx=0;exitDy=0;entryX=0;entryY=1;entryDx=0;entryDy=0;" edge="1" parent="1" source="TBS7EAhIqmJLn43qsNpC-8" target="TBS7EAhIqmJLn43qsNpC-4">
          <mxGeometry width="50" height="50" relative="1" as="geometry">
            <mxPoint x="420" y="290" as="sourcePoint" />
            <mxPoint x="470" y="240" as="targetPoint" />
            <Array as="points">
              <mxPoint x="720" y="210" />
            </Array>
          </mxGeometry>
        </mxCell>
        <mxCell id="TBS7EAhIqmJLn43qsNpC-44" value="" style="endArrow=classic;html=1;rounded=0;exitX=1;exitY=0.5;exitDx=0;exitDy=0;entryX=0;entryY=0.75;entryDx=0;entryDy=0;" edge="1" parent="1" source="TBS7EAhIqmJLn43qsNpC-7" target="TBS7EAhIqmJLn43qsNpC-8">
          <mxGeometry width="50" height="50" relative="1" as="geometry">
            <mxPoint x="420" y="290" as="sourcePoint" />
            <mxPoint x="470" y="240" as="targetPoint" />
          </mxGeometry>
        </mxCell>
        <mxCell id="TBS7EAhIqmJLn43qsNpC-45" value="" style="endArrow=classic;html=1;rounded=0;entryX=1;entryY=0.75;entryDx=0;entryDy=0;" edge="1" parent="1" target="TBS7EAhIqmJLn43qsNpC-6">
          <mxGeometry width="50" height="50" relative="1" as="geometry">
            <mxPoint x="230" y="270" as="sourcePoint" />
            <mxPoint x="470" y="240" as="targetPoint" />
          </mxGeometry>
        </mxCell>
        <mxCell id="TBS7EAhIqmJLn43qsNpC-46" value="" style="endArrow=classic;html=1;rounded=0;exitX=0.5;exitY=1;exitDx=0;exitDy=0;entryX=0;entryY=0.75;entryDx=0;entryDy=0;" edge="1" parent="1" source="TBS7EAhIqmJLn43qsNpC-5" target="TBS7EAhIqmJLn43qsNpC-7">
          <mxGeometry width="50" height="50" relative="1" as="geometry">
            <mxPoint x="420" y="290" as="sourcePoint" />
            <mxPoint x="470" y="240" as="targetPoint" />
            <Array as="points">
              <mxPoint x="230" y="270" />
            </Array>
          </mxGeometry>
        </mxCell>
        <mxCell id="TBS7EAhIqmJLn43qsNpC-47" value="" style="endArrow=classic;html=1;rounded=0;exitX=0;exitY=1;exitDx=0;exitDy=0;entryX=0.75;entryY=0;entryDx=0;entryDy=0;" edge="1" parent="1" source="TBS7EAhIqmJLn43qsNpC-2" target="TBS7EAhIqmJLn43qsNpC-5">
          <mxGeometry width="50" height="50" relative="1" as="geometry">
            <mxPoint x="420" y="290" as="sourcePoint" />
            <mxPoint x="470" y="240" as="targetPoint" />
            <Array as="points">
              <mxPoint x="250" y="140" />
            </Array>
          </mxGeometry>
        </mxCell>
        <mxCell id="TBS7EAhIqmJLn43qsNpC-48" value="" style="endArrow=classic;html=1;rounded=0;exitX=1;exitY=0.5;exitDx=0;exitDy=0;entryX=0;entryY=0.5;entryDx=0;entryDy=0;" edge="1" parent="1" source="TBS7EAhIqmJLn43qsNpC-3" target="TBS7EAhIqmJLn43qsNpC-4">
          <mxGeometry width="50" height="50" relative="1" as="geometry">
            <mxPoint x="420" y="290" as="sourcePoint" />
            <mxPoint x="470" y="240" as="targetPoint" />
          </mxGeometry>
        </mxCell>
        <mxCell id="TBS7EAhIqmJLn43qsNpC-49" value="" style="endArrow=classic;html=1;rounded=0;exitX=1;exitY=0.5;exitDx=0;exitDy=0;entryX=0.75;entryY=1;entryDx=0;entryDy=0;" edge="1" parent="1" source="TBS7EAhIqmJLn43qsNpC-15" target="TBS7EAhIqmJLn43qsNpC-4">
          <mxGeometry width="50" height="50" relative="1" as="geometry">
            <mxPoint x="420" y="470" as="sourcePoint" />
            <mxPoint x="470" y="420" as="targetPoint" />
            <Array as="points">
              <mxPoint x="800" y="420" />
            </Array>
          </mxGeometry>
        </mxCell>
        <mxCell id="TBS7EAhIqmJLn43qsNpC-50" value="" style="endArrow=classic;html=1;rounded=0;entryX=0;entryY=0.5;entryDx=0;entryDy=0;" edge="1" parent="1" target="TBS7EAhIqmJLn43qsNpC-15">
          <mxGeometry width="50" height="50" relative="1" as="geometry">
            <mxPoint x="390" y="420" as="sourcePoint" />
            <mxPoint x="470" y="420" as="targetPoint" />
          </mxGeometry>
        </mxCell>
        <mxCell id="TBS7EAhIqmJLn43qsNpC-51" value="" style="endArrow=classic;html=1;rounded=0;" edge="1" parent="1">
          <mxGeometry width="50" height="50" relative="1" as="geometry">
            <mxPoint x="220" y="420" as="sourcePoint" />
            <mxPoint x="320" y="420" as="targetPoint" />
          </mxGeometry>
        </mxCell>
        <mxCell id="TBS7EAhIqmJLn43qsNpC-52" value="" style="endArrow=classic;html=1;rounded=0;exitX=0.75;exitY=0;exitDx=0;exitDy=0;entryX=0.25;entryY=1;entryDx=0;entryDy=0;" edge="1" parent="1" source="TBS7EAhIqmJLn43qsNpC-9" target="TBS7EAhIqmJLn43qsNpC-4">
          <mxGeometry width="50" height="50" relative="1" as="geometry">
            <mxPoint x="420" y="470" as="sourcePoint" />
            <mxPoint x="470" y="420" as="targetPoint" />
          </mxGeometry>
        </mxCell>
        <mxCell id="TBS7EAhIqmJLn43qsNpC-53" value="" style="endArrow=classic;html=1;rounded=0;exitX=1;exitY=0;exitDx=0;exitDy=0;entryX=0;entryY=1;entryDx=0;entryDy=0;" edge="1" parent="1" source="TBS7EAhIqmJLn43qsNpC-10" target="TBS7EAhIqmJLn43qsNpC-9">
          <mxGeometry width="50" height="50" relative="1" as="geometry">
            <mxPoint x="420" y="470" as="sourcePoint" />
            <mxPoint x="470" y="420" as="targetPoint" />
          </mxGeometry>
        </mxCell>
        <mxCell id="TBS7EAhIqmJLn43qsNpC-54" value="" style="endArrow=classic;html=1;rounded=0;entryX=0;entryY=0.5;entryDx=0;entryDy=0;" edge="1" parent="1" target="TBS7EAhIqmJLn43qsNpC-10">
          <mxGeometry width="50" height="50" relative="1" as="geometry">
            <mxPoint x="560" y="330" as="sourcePoint" />
            <mxPoint x="470" y="420" as="targetPoint" />
          </mxGeometry>
        </mxCell>
        <mxCell id="TBS7EAhIqmJLn43qsNpC-55" value="" style="endArrow=classic;html=1;rounded=0;exitX=0.5;exitY=1;exitDx=0;exitDy=0;entryX=1;entryY=0.5;entryDx=0;entryDy=0;" edge="1" parent="1" source="TBS7EAhIqmJLn43qsNpC-8" target="TBS7EAhIqmJLn43qsNpC-11">
          <mxGeometry width="50" height="50" relative="1" as="geometry">
            <mxPoint x="420" y="470" as="sourcePoint" />
            <mxPoint x="470" y="420" as="targetPoint" />
            <Array as="points">
              <mxPoint x="560" y="330" />
            </Array>
          </mxGeometry>
        </mxCell>
        <mxCell id="TBS7EAhIqmJLn43qsNpC-56" value="" style="endArrow=classic;html=1;rounded=0;entryX=0;entryY=0.5;entryDx=0;entryDy=0;" edge="1" parent="1" target="TBS7EAhIqmJLn43qsNpC-30">
          <mxGeometry width="50" height="50" relative="1" as="geometry">
            <mxPoint x="220" y="690" as="sourcePoint" />
            <mxPoint x="410" y="520" as="targetPoint" />
          </mxGeometry>
        </mxCell>
        <mxCell id="TBS7EAhIqmJLn43qsNpC-57" value="" style="endArrow=classic;html=1;rounded=0;entryX=0;entryY=0.5;entryDx=0;entryDy=0;" edge="1" parent="1" target="TBS7EAhIqmJLn43qsNpC-27">
          <mxGeometry width="50" height="50" relative="1" as="geometry">
            <mxPoint x="280" y="603" as="sourcePoint" />
            <mxPoint x="410" y="520" as="targetPoint" />
          </mxGeometry>
        </mxCell>
        <mxCell id="TBS7EAhIqmJLn43qsNpC-58" value="" style="endArrow=classic;html=1;rounded=0;exitX=0.5;exitY=1;exitDx=0;exitDy=0;entryX=1;entryY=0.5;entryDx=0;entryDy=0;" edge="1" parent="1" source="TBS7EAhIqmJLn43qsNpC-26" target="TBS7EAhIqmJLn43qsNpC-28">
          <mxGeometry width="50" height="50" relative="1" as="geometry">
            <mxPoint x="360" y="570" as="sourcePoint" />
            <mxPoint x="410" y="520" as="targetPoint" />
            <Array as="points">
              <mxPoint x="280" y="605" />
            </Array>
          </mxGeometry>
        </mxCell>
        <mxCell id="TBS7EAhIqmJLn43qsNpC-59" value="" style="endArrow=classic;html=1;rounded=0;exitX=0.5;exitY=0;exitDx=0;exitDy=0;entryX=0;entryY=0.5;entryDx=0;entryDy=0;" edge="1" parent="1" source="TBS7EAhIqmJLn43qsNpC-19" target="TBS7EAhIqmJLn43qsNpC-16">
          <mxGeometry width="50" height="50" relative="1" as="geometry">
            <mxPoint x="360" y="570" as="sourcePoint" />
            <mxPoint x="410" y="520" as="targetPoint" />
            <Array as="points">
              <mxPoint x="-180" y="450" />
            </Array>
          </mxGeometry>
        </mxCell>
        <mxCell id="TBS7EAhIqmJLn43qsNpC-60" value="" style="endArrow=classic;html=1;rounded=0;exitX=0.25;exitY=1;exitDx=0;exitDy=0;entryX=1;entryY=0.5;entryDx=0;entryDy=0;" edge="1" parent="1" source="TBS7EAhIqmJLn43qsNpC-18" target="TBS7EAhIqmJLn43qsNpC-19">
          <mxGeometry width="50" height="50" relative="1" as="geometry">
            <mxPoint x="360" y="570" as="sourcePoint" />
            <mxPoint x="-220" y="595" as="targetPoint" />
            <Array as="points">
              <mxPoint x="-100" y="595" />
            </Array>
          </mxGeometry>
        </mxCell>
        <mxCell id="TBS7EAhIqmJLn43qsNpC-61" value="" style="endArrow=classic;html=1;rounded=0;exitX=1;exitY=0.75;exitDx=0;exitDy=0;entryX=0;entryY=0.5;entryDx=0;entryDy=0;" edge="1" parent="1" source="TBS7EAhIqmJLn43qsNpC-17" target="TBS7EAhIqmJLn43qsNpC-26">
          <mxGeometry width="50" height="50" relative="1" as="geometry">
            <mxPoint x="360" y="570" as="sourcePoint" />
            <mxPoint x="410" y="520" as="targetPoint" />
          </mxGeometry>
        </mxCell>
        <mxCell id="TBS7EAhIqmJLn43qsNpC-62" value="" style="endArrow=classic;html=1;rounded=0;" edge="1" parent="1">
          <mxGeometry width="50" height="50" relative="1" as="geometry">
            <mxPoint y="520" as="sourcePoint" />
            <mxPoint x="80" y="520" as="targetPoint" />
          </mxGeometry>
        </mxCell>
        <mxCell id="TBS7EAhIqmJLn43qsNpC-63" value="" style="endArrow=classic;html=1;rounded=0;exitX=0.5;exitY=1;exitDx=0;exitDy=0;entryX=1;entryY=0.75;entryDx=0;entryDy=0;" edge="1" parent="1" source="TBS7EAhIqmJLn43qsNpC-16" target="TBS7EAhIqmJLn43qsNpC-18">
          <mxGeometry width="50" height="50" relative="1" as="geometry">
            <mxPoint x="360" y="570" as="sourcePoint" />
            <mxPoint x="410" y="520" as="targetPoint" />
            <Array as="points">
              <mxPoint y="520" />
            </Array>
          </mxGeometry>
        </mxCell>
        <mxCell id="TBS7EAhIqmJLn43qsNpC-64" value="" style="endArrow=classic;html=1;rounded=0;exitX=0.5;exitY=1;exitDx=0;exitDy=0;entryX=1;entryY=0.5;entryDx=0;entryDy=0;" edge="1" parent="1" source="TBS7EAhIqmJLn43qsNpC-28" target="TBS7EAhIqmJLn43qsNpC-31">
          <mxGeometry width="50" height="50" relative="1" as="geometry">
            <mxPoint x="370" y="480" as="sourcePoint" />
            <mxPoint x="410" y="510" as="targetPoint" />
            <Array as="points">
              <mxPoint x="220" y="690" />
            </Array>
          </mxGeometry>
        </mxCell>
        <mxCell id="TBS7EAhIqmJLn43qsNpC-65" value="" style="endArrow=classic;html=1;rounded=0;exitX=0;exitY=0.75;exitDx=0;exitDy=0;entryX=1;entryY=0.25;entryDx=0;entryDy=0;" edge="1" parent="1" source="TBS7EAhIqmJLn43qsNpC-13" target="TBS7EAhIqmJLn43qsNpC-16">
          <mxGeometry width="50" height="50" relative="1" as="geometry">
            <mxPoint x="360" y="570" as="sourcePoint" />
            <mxPoint x="410" y="520" as="targetPoint" />
          </mxGeometry>
        </mxCell>
        <mxCell id="TBS7EAhIqmJLn43qsNpC-66" value="" style="endArrow=classic;html=1;rounded=0;exitX=1;exitY=0.75;exitDx=0;exitDy=0;entryX=0.75;entryY=1;entryDx=0;entryDy=0;" edge="1" parent="1" source="TBS7EAhIqmJLn43qsNpC-27" target="TBS7EAhIqmJLn43qsNpC-4">
          <mxGeometry width="50" height="50" relative="1" as="geometry">
            <mxPoint x="340" y="780" as="sourcePoint" />
            <mxPoint x="390" y="730" as="targetPoint" />
            <Array as="points">
              <mxPoint x="802" y="611" />
            </Array>
          </mxGeometry>
        </mxCell>
        <mxCell id="TBS7EAhIqmJLn43qsNpC-67" value="" style="endArrow=classic;html=1;rounded=0;exitX=1;exitY=0.75;exitDx=0;exitDy=0;entryX=0.75;entryY=1;entryDx=0;entryDy=0;" edge="1" parent="1" source="TBS7EAhIqmJLn43qsNpC-30" target="TBS7EAhIqmJLn43qsNpC-4">
          <mxGeometry width="50" height="50" relative="1" as="geometry">
            <mxPoint x="340" y="780" as="sourcePoint" />
            <mxPoint x="390" y="730" as="targetPoint" />
            <Array as="points">
              <mxPoint x="802" y="703" />
            </Array>
          </mxGeometry>
        </mxCell>
        <mxCell id="TBS7EAhIqmJLn43qsNpC-68" value="" style="endArrow=classic;html=1;rounded=0;exitX=1;exitY=0.5;exitDx=0;exitDy=0;entryX=0.75;entryY=1;entryDx=0;entryDy=0;" edge="1" parent="1" source="TBS7EAhIqmJLn43qsNpC-34" target="TBS7EAhIqmJLn43qsNpC-4">
          <mxGeometry width="50" height="50" relative="1" as="geometry">
            <mxPoint x="340" y="780" as="sourcePoint" />
            <mxPoint x="390" y="730" as="targetPoint" />
            <Array as="points">
              <mxPoint x="802" y="880" />
            </Array>
          </mxGeometry>
        </mxCell>
        <mxCell id="TBS7EAhIqmJLn43qsNpC-69" value="" style="endArrow=classic;html=1;rounded=0;exitX=1;exitY=0.5;exitDx=0;exitDy=0;entryX=1;entryY=1;entryDx=0;entryDy=0;" edge="1" parent="1" source="TBS7EAhIqmJLn43qsNpC-37" target="TBS7EAhIqmJLn43qsNpC-4">
          <mxGeometry width="50" height="50" relative="1" as="geometry">
            <mxPoint x="340" y="780" as="sourcePoint" />
            <mxPoint x="390" y="730" as="targetPoint" />
            <Array as="points">
              <mxPoint x="810" y="970" />
            </Array>
          </mxGeometry>
        </mxCell>
        <mxCell id="TBS7EAhIqmJLn43qsNpC-70" value="" style="endArrow=classic;html=1;rounded=0;exitX=1;exitY=0.75;exitDx=0;exitDy=0;entryX=0;entryY=0.75;entryDx=0;entryDy=0;" edge="1" parent="1" source="TBS7EAhIqmJLn43qsNpC-36" target="TBS7EAhIqmJLn43qsNpC-37">
          <mxGeometry width="50" height="50" relative="1" as="geometry">
            <mxPoint x="340" y="780" as="sourcePoint" />
            <mxPoint x="390" y="730" as="targetPoint" />
          </mxGeometry>
        </mxCell>
        <mxCell id="TBS7EAhIqmJLn43qsNpC-71" value="" style="endArrow=classic;html=1;rounded=0;exitX=0.5;exitY=1;exitDx=0;exitDy=0;entryX=0.171;entryY=0.002;entryDx=0;entryDy=0;entryPerimeter=0;" edge="1" parent="1" source="TBS7EAhIqmJLn43qsNpC-35" target="TBS7EAhIqmJLn43qsNpC-36">
          <mxGeometry width="50" height="50" relative="1" as="geometry">
            <mxPoint x="340" y="780" as="sourcePoint" />
            <mxPoint x="390" y="730" as="targetPoint" />
          </mxGeometry>
        </mxCell>
        <mxCell id="TBS7EAhIqmJLn43qsNpC-72" value="" style="endArrow=classic;html=1;rounded=0;entryX=0;entryY=0.5;entryDx=0;entryDy=0;" edge="1" parent="1" target="TBS7EAhIqmJLn43qsNpC-34">
          <mxGeometry width="50" height="50" relative="1" as="geometry">
            <mxPoint x="110" y="870" as="sourcePoint" />
            <mxPoint x="390" y="730" as="targetPoint" />
          </mxGeometry>
        </mxCell>
        <mxCell id="TBS7EAhIqmJLn43qsNpC-73" value="" style="endArrow=classic;html=1;rounded=0;exitX=0.5;exitY=1;exitDx=0;exitDy=0;entryX=1;entryY=0.5;entryDx=0;entryDy=0;" edge="1" parent="1" source="TBS7EAhIqmJLn43qsNpC-33" target="TBS7EAhIqmJLn43qsNpC-35">
          <mxGeometry width="50" height="50" relative="1" as="geometry">
            <mxPoint x="340" y="780" as="sourcePoint" />
            <mxPoint x="390" y="730" as="targetPoint" />
            <Array as="points">
              <mxPoint x="110" y="870" />
            </Array>
          </mxGeometry>
        </mxCell>
        <mxCell id="TBS7EAhIqmJLn43qsNpC-74" value="" style="endArrow=classic;html=1;rounded=0;exitX=0.5;exitY=1;exitDx=0;exitDy=0;entryX=0.5;entryY=0;entryDx=0;entryDy=0;" edge="1" parent="1" source="TBS7EAhIqmJLn43qsNpC-31" target="TBS7EAhIqmJLn43qsNpC-33">
          <mxGeometry width="50" height="50" relative="1" as="geometry">
            <mxPoint x="340" y="780" as="sourcePoint" />
            <mxPoint x="390" y="730" as="targetPoint" />
          </mxGeometry>
        </mxCell>
        <mxCell id="TBS7EAhIqmJLn43qsNpC-75" value="&lt;font style=&quot;font-size: 18px;&quot;&gt;COMO COMPRAR UN SUPER DEPORTIVO&lt;/font&gt;" style="rounded=1;whiteSpace=wrap;html=1;" vertex="1" parent="1">
          <mxGeometry x="270" y="-80" width="390" height="60" as="geometry" />
        </mxCell>
        <mxCell id="TBS7EAhIqmJLn43qsNpC-76" value="" style="rhombus;whiteSpace=wrap;html=1;" vertex="1" parent="1">
          <mxGeometry x="1280" y="420" width="80" height="80" as="geometry" />
        </mxCell>
      </root>
    </mxGraphModel>
  </diagram>
</mxfile>
